<mxfile host="app.diagrams.net" modified="2024-06-24T00:56:11.907Z" agent="Mozilla/5.0 (Macintosh; Intel Mac OS X 10_15_7) AppleWebKit/605.1.15 (KHTML, like Gecko) Version/17.5 Safari/605.1.15" etag="cigeCmINrx27LDVxC1Lv" version="24.6.2" type="github">
  <diagram name="Page-1" id="doeirPS9alDtRM37HwJb">
    <mxGraphModel dx="1194" dy="696" grid="1" gridSize="10" guides="1" tooltips="1" connect="1" arrows="1" fold="1" page="1" pageScale="1" pageWidth="850" pageHeight="1100" math="0" shadow="0">
      <root>
        <mxCell id="0" />
        <mxCell id="1" parent="0" />
        <mxCell id="8-TCjWO_cd9bJm1SpuvC-1" value="" style="rounded=0;whiteSpace=wrap;html=1;" vertex="1" parent="1">
          <mxGeometry x="40" y="80" width="1020" height="480" as="geometry" />
        </mxCell>
        <mxCell id="fFeDER5dkc9vA0YlVc-Z-4" style="edgeStyle=orthogonalEdgeStyle;rounded=0;orthogonalLoop=1;jettySize=auto;html=1;entryX=0;entryY=0.5;entryDx=0;entryDy=0;" parent="1" source="fFeDER5dkc9vA0YlVc-Z-2" target="fFeDER5dkc9vA0YlVc-Z-3" edge="1">
          <mxGeometry relative="1" as="geometry" />
        </mxCell>
        <mxCell id="fFeDER5dkc9vA0YlVc-Z-2" value="训练数据" style="ellipse;shape=cloud;whiteSpace=wrap;html=1;" parent="1" vertex="1">
          <mxGeometry x="90" y="130" width="120" height="80" as="geometry" />
        </mxCell>
        <mxCell id="fFeDER5dkc9vA0YlVc-Z-8" style="edgeStyle=orthogonalEdgeStyle;rounded=0;orthogonalLoop=1;jettySize=auto;html=1;entryX=0;entryY=0.5;entryDx=0;entryDy=0;" parent="1" source="fFeDER5dkc9vA0YlVc-Z-3" target="fFeDER5dkc9vA0YlVc-Z-5" edge="1">
          <mxGeometry relative="1" as="geometry" />
        </mxCell>
        <mxCell id="fFeDER5dkc9vA0YlVc-Z-3" value="LLM" style="rounded=1;whiteSpace=wrap;html=1;" parent="1" vertex="1">
          <mxGeometry x="320" y="140" width="120" height="60" as="geometry" />
        </mxCell>
        <mxCell id="fFeDER5dkc9vA0YlVc-Z-13" style="edgeStyle=orthogonalEdgeStyle;rounded=0;orthogonalLoop=1;jettySize=auto;html=1;" parent="1" source="fFeDER5dkc9vA0YlVc-Z-5" target="fFeDER5dkc9vA0YlVc-Z-14" edge="1">
          <mxGeometry relative="1" as="geometry">
            <mxPoint x="590" y="380" as="targetPoint" />
          </mxGeometry>
        </mxCell>
        <mxCell id="fFeDER5dkc9vA0YlVc-Z-5" value="UI/API/Apps" style="ellipse;whiteSpace=wrap;html=1;aspect=fixed;" parent="1" vertex="1">
          <mxGeometry x="550" y="130" width="80" height="80" as="geometry" />
        </mxCell>
        <mxCell id="fFeDER5dkc9vA0YlVc-Z-6" value="" style="shape=actor;whiteSpace=wrap;html=1;" parent="1" vertex="1">
          <mxGeometry x="260" y="360" width="40" height="60" as="geometry" />
        </mxCell>
        <mxCell id="fFeDER5dkc9vA0YlVc-Z-7" value="" style="endArrow=classic;html=1;rounded=0;" parent="1" target="fFeDER5dkc9vA0YlVc-Z-5" edge="1">
          <mxGeometry width="50" height="50" relative="1" as="geometry">
            <mxPoint x="310" y="390" as="sourcePoint" />
            <mxPoint x="450" y="330" as="targetPoint" />
          </mxGeometry>
        </mxCell>
        <mxCell id="fFeDER5dkc9vA0YlVc-Z-9" value="Ai的各种能力" style="text;html=1;align=center;verticalAlign=middle;whiteSpace=wrap;rounded=0;" parent="1" vertex="1">
          <mxGeometry x="630" y="120" width="100" height="30" as="geometry" />
        </mxCell>
        <mxCell id="fFeDER5dkc9vA0YlVc-Z-10" value="金融科技能力" style="text;html=1;align=center;verticalAlign=middle;whiteSpace=wrap;rounded=0;" parent="1" vertex="1">
          <mxGeometry x="630" y="150" width="100" height="30" as="geometry" />
        </mxCell>
        <mxCell id="fFeDER5dkc9vA0YlVc-Z-11" value="管理能力" style="text;html=1;align=center;verticalAlign=middle;whiteSpace=wrap;rounded=0;" parent="1" vertex="1">
          <mxGeometry x="630" y="180" width="100" height="30" as="geometry" />
        </mxCell>
        <mxCell id="fFeDER5dkc9vA0YlVc-Z-12" value="医疗领域能力" style="text;html=1;align=center;verticalAlign=middle;whiteSpace=wrap;rounded=0;" parent="1" vertex="1">
          <mxGeometry x="630" y="210" width="100" height="30" as="geometry" />
        </mxCell>
        <mxCell id="fFeDER5dkc9vA0YlVc-Z-16" style="edgeStyle=orthogonalEdgeStyle;rounded=0;orthogonalLoop=1;jettySize=auto;html=1;entryX=0;entryY=0.5;entryDx=0;entryDy=0;" parent="1" source="fFeDER5dkc9vA0YlVc-Z-14" target="fFeDER5dkc9vA0YlVc-Z-15" edge="1">
          <mxGeometry relative="1" as="geometry" />
        </mxCell>
        <mxCell id="fFeDER5dkc9vA0YlVc-Z-14" value="错误回复" style="text;html=1;align=center;verticalAlign=middle;whiteSpace=wrap;rounded=0;" parent="1" vertex="1">
          <mxGeometry x="560" y="365" width="60" height="30" as="geometry" />
        </mxCell>
        <mxCell id="fFeDER5dkc9vA0YlVc-Z-15" value="1. 没问清楚&lt;div&gt;&lt;font color=&quot;#ffb570&quot;&gt;&amp;nbsp; Prompts Engineering&lt;br&gt;&lt;/font&gt;&lt;div&gt;2. 缺乏相关知识&lt;/div&gt;&lt;div&gt;&lt;font color=&quot;#ffb570&quot;&gt;&amp;nbsp; RAG&lt;/font&gt;&lt;/div&gt;&lt;div&gt;3. 能力不足&lt;/div&gt;&lt;/div&gt;&lt;div&gt;&lt;font color=&quot;#ffb570&quot;&gt;&amp;nbsp; fine-tunning&lt;/font&gt;&lt;/div&gt;" style="text;html=1;align=left;verticalAlign=middle;whiteSpace=wrap;rounded=0;" parent="1" vertex="1">
          <mxGeometry x="840" y="330" width="160" height="100" as="geometry" />
        </mxCell>
      </root>
    </mxGraphModel>
  </diagram>
</mxfile>
